Coordinates
version=1
nRows=17
nColumns=36
inDegrees=yes

Units are S.I. units (second, meters, Newtons, ...)
If the header above contains a line with 'inDegrees', this indicates whether rotational values are in degrees (yes) or radians (no).

endheader
time	pelvis_tilt	pelvis_list	pelvis_rotation	pelvis_tx	pelvis_ty	pelvis_tz	hip_flexion_r	hip_adduction_r	hip_rotation_r	knee_angle_r	knee_angle_r_beta	ankle_angle_r	subtalar_angle_r	mtp_angle_r	hip_flexion_l	hip_adduction_l	hip_rotation_l	knee_angle_l	knee_angle_l_beta	ankle_angle_l	subtalar_angle_l	mtp_angle_l	lumbar_extension	lumbar_bending	lumbar_rotation	arm_flex_r	arm_add_r	arm_rot_r	elbow_flex_r	pro_sup_r	arm_flex_l	arm_add_l	arm_rot_l	elbow_flex_l	pro_sup_l
     45.30000000	     -4.57553286	     -6.47154563	     -3.92758927	      0.60380851	      0.92093372	      0.76458782	     22.57059151	      7.83413500	     -4.25069092	     17.47261356	      0.30495464	      7.61582918	     -6.88986783	     -7.49999987	      1.69306452	    -11.77528892	     -9.90554353	     41.00546681	      0.71568041	     -1.11970807	    -15.57535682	     -7.49999987	      4.08237797	      9.63123616	      1.49737250	     -3.09650666	    -13.32005910	     -1.43635482	     19.14928919	     69.79255204	      6.22934903	     -7.53768450	     13.92855584	     21.56960546	     67.07266648
     45.31666670	     -4.22275971	     -6.25586724	     -3.95739204	      0.60128323	      0.91871265	      0.76826540	     21.24674703	      7.89251329	     -3.91311867	     17.49316132	      0.30531326	      8.57936994	     -6.57978081	     -7.49999987	      3.79716627	    -11.98341566	     -8.86904190	     45.93687923	      0.80174979	     -4.84337941	    -18.97963566	     -7.49999987	      3.18921531	      9.50056058	      2.43272508	     -2.67245845	    -13.64983326	     -1.64282802	     19.94015466	     70.00128993	      6.20696606	     -7.30654595	     14.31809332	     20.80787836	     67.39125600
     45.33333330	     -3.90101481	     -5.92741547	     -4.08506202	      0.59934195	      0.91835238	      0.77225891	     19.94712969	      7.81560983	     -3.60519430	     17.37824159	      0.30330753	      9.54498403	     -5.85991293	     -7.49999987	      6.03018738	    -11.93997483	     -8.10115966	     50.37247661	      0.87916557	     -6.92017611	    -21.32044606	     -7.49999987	      2.16445249	      9.25169113	      4.21127554	     -3.02590827	    -13.87294902	     -3.53182190	     21.72079385	     70.59272199	      6.87185796	     -7.01414820	     15.80965838	     19.33183097	     68.99781743
     45.35000000	     -3.62301332	     -5.56245155	     -4.29362956	      0.59738403	      0.91900061	      0.77670624	     18.70929022	      7.68505620	     -3.32621362	     17.17068255	      0.29968495	     10.24614166	     -5.27792007	     -7.49999987	      8.46291400	    -11.73621456	     -7.54570274	     54.40294301	      0.94951048	     -7.52586184	    -22.80521618	     -7.49999987	      1.16268876	      8.94858723	      5.04494361	     -2.31291216	    -14.10930700	     -3.68933692	     22.28139560	     70.67511504	      6.67384272	     -7.12395802	     15.76693476	     19.14095668	     69.07799718
     45.36666670	     -3.33991880	     -5.00763936	     -4.84260945	      0.59313203	      0.92134770	      0.78065946	     17.61113724	      7.39333753	     -2.82406509	     17.09636494	      0.29838786	     10.86376153	     -4.77919080	     -7.49999987	     11.00084198	    -11.17754484	     -7.34592128	     57.95509455	      1.01150722	     -7.11066273	    -23.72761106	     -7.49999987	     -0.00832776	      8.41697622	      5.96298931	     -1.34438987	    -14.26379277	     -3.73432490	     22.88785934	     70.70987240	      6.47993034	     -7.32877773	     15.70880658	     18.97244211	     69.09684256
     45.38333330	     -3.39162261	     -4.45070627	     -5.35716442	      0.58735611	      0.92519233	      0.78271331	     17.08804615	      6.95581888	     -2.94382475	     17.27363678	      0.30148184	     11.84478206	     -3.63208774	     -7.49999987	     14.14207477	    -10.42662050	     -7.03666089	     61.26060487	      1.06919926	     -6.09851681	    -24.28453827	     -7.49999987	     -0.82413592	      7.96837873	      6.78724999	     -0.70359470	    -14.60698789	     -3.75989762	     24.18399613	     70.85088544	      6.32532720	     -7.38980056	     15.56643779	     18.77702290	     69.20253818
     45.40000000	     -3.46984261	     -3.79803854	     -5.94960235	      0.58249327	      0.93005297	      0.78421179	     16.75585347	      6.42226121	     -3.06857120	     17.62945849	      0.30769210	     12.72485536	     -2.42374882	     -7.49999987	     17.20646410	     -9.55703151	     -7.05384340	     63.95086254	      1.11615311	     -4.09213185	    -23.78242421	     -7.49999987	     -1.71295743	      7.41679373	      7.76400956	     -0.12043145	    -14.98283718	     -3.79713933	     26.19032570	     70.27113361	      6.32975062	     -7.43667346	     15.20982487	     18.64655780	     68.86652049
     45.41666670	     -3.44431225	     -3.15662265	     -6.40391820	      0.58041635	      0.93341554	      0.78545515	     16.27531158	      5.88880585	     -3.17339529	     18.00638591	      0.31427072	     13.76264515	     -1.36501332	     -7.49999987	     19.78327428	     -8.60790094	     -7.13953287	     65.48541245	      1.14293606	     -1.59135017	    -22.38898603	     -7.49999987	     -2.54830575	      6.80840828	      8.25231612	      0.95205811	    -15.23339385	     -4.34891847	     27.45041756	     73.04691572	      6.18820133	     -7.66003890	     14.59973446	     18.81144939	     72.27332156
     45.43333330	     -3.46636789	     -2.57310871	     -6.70635778	      0.58029935	      0.93440062	      0.78620761	     15.65809178	      5.39258092	     -3.22471770	     18.26832354	      0.31884239	     14.83060949	     -0.47765078	     -7.49999987	     21.80135951	     -7.70378255	     -7.30839352	     65.41362127	      1.14168307	      1.17764528	    -20.02381499	     -7.49999987	     -2.96081822	      6.22828179	      8.50450948	      1.95314134	    -15.49714127	     -4.12612324	     28.47512861	     72.73093187	      6.00602058	     -7.76299128	     14.18147233	     18.71123986	     71.87375302
     45.45000000	     -3.60108504	     -2.01521156	     -7.00305774	      0.58015851	      0.93429689	      0.78722728	     15.01345739	      4.93552319	     -3.10925065	     18.44290774	      0.32188946	     15.87159876	      0.21058440	     -7.49999987	     23.27897550	     -6.90507797	     -7.58552041	     63.93351148	      1.11585028	      3.51301929	    -17.11434955	     -7.49999987	     -2.91144086	      5.68721826	      8.69360675	      2.72367177	    -15.78629990	     -3.63853664	     29.30839038	     72.34837425	      5.71490618	     -7.83625860	     14.10073441	     18.41400580	     71.41656297
     45.46666670	     -3.86375931	     -1.42181679	     -7.27033962	      0.57887986	      0.93371015	      0.78907855	     14.43819713	      4.42626824	     -2.85501512	     18.55728639	      0.32388575	     16.56005032	      0.35159232	     -7.49999987	     24.42362467	     -6.10831286	     -7.90513608	     61.37885502	      1.07126311	      4.72849897	    -14.68635084	     -7.49999987	     -2.61940428	      5.09378985	      8.73741357	      3.24464284	    -15.92770545	     -3.51362275	     30.26483900	     72.30377932	      5.07616201	     -8.05577926	     14.12832017	     18.52337990	     71.36907488
     45.48333330	     -4.10445351	     -0.96700083	     -7.58091020	      0.57701011	      0.93275024	      0.79153645	     13.80968326	      4.03559921	     -2.63492868	     18.67698907	      0.32597495	     17.10100825	      0.40279893	     -7.49999987	     25.34787140	     -5.69191698	     -8.52846788	     58.56940666	      1.02222899	      5.65655120	    -11.96688888	     -7.49999987	     -2.19889502	      4.62320413	      8.78461593	      3.71936021	    -16.05145622	     -3.27205588	     30.95817550	     72.38543093	      4.52139016	     -8.19053497	     14.20913811	     18.28474198	     71.42635351
     45.50000000	     -4.43240209	     -0.62958096	     -7.81041176	      0.57602288	      0.93141031	      0.79331685	     13.22199054	      3.75384690	     -2.49349693	     18.79086022	      0.32796238	     17.42615670	      0.27486492	     -7.49999987	     26.30030505	     -5.40233059	     -9.06985670	     55.60269611	      0.97045012	      5.86279871	     -9.89169988	     -7.49999987	     -1.68073953	      4.21236235	      8.85539049	      4.08267151	    -16.14870913	     -3.05072345	     31.57305344	     72.46711768	      3.90018720	     -8.27245043	     14.36068854	     18.04664671	     71.50695447
     45.51666670	     -4.68473713	     -0.40234979	     -8.00748632	      0.57624242	      0.93009278	      0.79413066	     12.53786570	      3.60703047	     -2.26282796	     18.97983130	      0.33126055	     17.81332586	      0.17571408	     -7.49999987	     27.05478563	     -5.35757825	     -9.83146227	     52.36535160	      0.91394780	      6.19805937	     -7.56567113	     -7.49999987	     -1.22997941	      3.93532566	      8.91064604	      4.34966459	    -16.35028418	     -2.35825308	     31.90644935	     72.43362915	      3.58161796	     -8.24608500	     14.97268233	     17.24586986	     71.52211824
     45.53333330	     -5.08751866	     -0.25612580	     -8.11283775	      0.57725296	      0.92825750	      0.79435841	     12.01736568	      3.54666578	     -2.24300427	     19.15605245	      0.33433619	     18.17200309	      0.13611860	     -7.49999987	     27.95928179	     -5.33918183	    -10.39735530	     48.79184869	      0.85157841	      5.92289574	     -5.95975297	     -7.49999987	     -0.58254240	      3.67245760	      8.75416759	      4.32377251	    -16.41353784	     -2.25734487	     32.50816398	     72.50566679	      2.86343865	     -8.28544839	     15.20328852	     17.17603691	     71.65628709
     45.55000000	     -5.36289270	     -0.17055027	     -8.34448821	      0.57846175	      0.92594975	      0.79483058	     11.48189630	      3.55339762	     -2.21793086	     19.43042534	      0.33912490	     18.99821406	      0.46984659	     -7.49999987	     28.75215916	     -5.49682054	    -11.16800813	     45.20106090	      0.78890734	      6.38382728	     -3.62093314	     -7.49999987	     -0.26954665	      3.48215643	      8.71113437	      4.20468611	    -16.54592293	     -2.09575240	     33.52465349	     72.06593394	      2.01913742	     -8.36766700	     15.57860158	     17.54033578	     71.34283422
     45.56666670	     -5.89195586	     -0.15437083	     -8.55563432	      0.57964499	      0.92276575	      0.79540591	     11.27064134	      3.62561330	     -2.48616940	     19.61110102	      0.34227828	     20.03927526	      1.00157758	     -7.49999987	     29.98288613	     -5.74502185	    -11.66931024	     42.00413148	      0.73311039	      6.73959687	     -1.70476166	     -7.49999987	      0.46353605	      3.46285747	      8.69043871	      4.03563452	    -16.66530901	     -1.92215388	     33.99349590	     72.33078401	      1.28430390	     -8.35735079	     16.05313119	     17.38400917	     71.71818239
